<?xml version="1.0" encoding="UTF-8" standalone="no"?> <svg id="Layer_1" data-name="Layer 1" xmlns="http://www.w3.org/2000/svg" viewBox="0 0 48 48"><title>Save Earth</title><path d="M18,38.757V45a1,1,0,0,1-1,1H12.368a1,1,0,0,1-1-1V43.812L5.079,37.585A3.629,3.629,0,0,1,4,35.006V24.844a1.466,1.466,0,0,1,1.473-1.459,2.952,2.952,0,0,1,2.084.855A2.894,2.894,0,0,1,8.421,26.3v5.105L9.77,32.746a2.879,2.879,0,0,1,.734-1.212,1.23,1.23,0,0,1,1.727,0l4.69,4.644A3.63,3.63,0,0,1,18,38.757Z"/><path d="M44,24.845V35.006a3.629,3.629,0,0,1-1.079,2.579l-6.289,6.227V45a1,1,0,0,1-1,1H31a1,1,0,0,1-1-1V38.757a3.623,3.623,0,0,1,1.079-2.579l4.688-4.644a1.231,1.231,0,0,1,1.728,0,2.9,2.9,0,0,1,.734,1.212l1.349-1.337V26.3a2.893,2.893,0,0,1,.863-2.063,2.952,2.952,0,0,1,2.085-.855A1.466,1.466,0,0,1,44,24.845Z"/><path d="M24,2A14.5,14.5,0,1,0,38.5,16.5,14.5,14.5,0,0,0,24,2Zm11.149,8.87a.977.977,0,0,1-.564-.078l-1.316-.658a1,1,0,0,0-.567-.1l-3.176.384a1,1,0,0,1-.984-.489l-.068-.118a1,1,0,0,1,.309-1.335l1.965-1.31A1,1,0,0,1,31.3,7h.808A12.526,12.526,0,0,1,35.149,10.87ZM24.961,21.428a1.378,1.378,0,0,1-.386.937L23.387,23.6a1.381,1.381,0,0,0-.387.958v1.589a1.382,1.382,0,0,1-2.618.618l-.236-.472A1.383,1.383,0,0,1,20,25.674v-1.82a1.383,1.383,0,0,0-.764-1.236l-.824-.412a1.389,1.389,0,0,1-.618-.618L17,20V19l1-1,.595-.595A1.384,1.384,0,0,1,19.573,17h.854a1.384,1.384,0,0,1,.978.405l.364.364a1.382,1.382,0,0,0,.541.334l1.729.577a1.381,1.381,0,0,1,.945,1.333ZM17.71,5.71,18.8,6.8a1,1,0,0,0,.465.263l3.285.821a1,1,0,0,1,.652.523l.255.511a1,1,0,0,1-.62,1.409L18,11.713a1,1,0,0,0-.674,1.278l.4,1.186a1,1,0,0,1-.5,1.211l-.671.336a1,1,0,0,1-1.047-.1l-3.449-2.587c-.018-.013-.034-.029-.051-.043A12.517,12.517,0,0,1,17.71,5.71ZM33.447,24.67l-.241-.361a1.23,1.23,0,0,1-.206-.68v-1.31a1.229,1.229,0,0,0-.156-.6l-.956-1.707a1.229,1.229,0,0,1-.156-.6v-.191a1.225,1.225,0,0,0-2.091-.866l-.017.017a1.224,1.224,0,0,1-1.414.229l-.533-.267a1.223,1.223,0,0,1-.677-1.1V15.757a1.226,1.226,0,0,1,.677-1.1l3.064-1.532A1.226,1.226,0,0,1,31.289,13h1.2a1.226,1.226,0,0,1,.866.359l.282.282a1.226,1.226,0,0,0,.866.359h1.742a12.483,12.483,0,0,1-2.8,10.67Z"/></svg>